HIERARCHY
ROOT Pelvis
{
	OFFSET 0.000000 0.000000 0.000000
	CHANNELS 6 Xposition Yposition Zposition Xrotation Yrotation Zrotation
	JOINT LeftUpLeg_virtual
	{
		OFFSET 0.000000 0.000000 0.000000
		CHANNELS 3 Xrotation Yrotation Zrotation
		JOINT LeftUpLeg
		{
			OFFSET 18.735201 -5.666702 -4.541200
			CHANNELS 3 Xrotation Yrotation Zrotation
			JOINT LeftLeg
			{
				OFFSET -0.021200 -31.938179 0.493100
				CHANNELS 3 Xrotation Yrotation Zrotation
				JOINT LeftFoot
				{
					OFFSET 0.021200 -31.938179 -4.336299
					CHANNELS 3 Xrotation Yrotation Zrotation
					JOINT LeftToeBase
					{
						OFFSET 0.943001 -26.722000 15.023500
						CHANNELS 3 Xrotation Yrotation Zrotation
						End Site
						{
							OFFSET 0 0 0
						}
					}
				}
			}
		}
	}
	JOINT RightUpLeg_virtual
	{
		OFFSET 0.000000 0.000000 0.000000
		CHANNELS 3 Xrotation Yrotation Zrotation
		JOINT RightUpLeg
		{
			OFFSET -18.735201 -5.666702 -4.541200
			CHANNELS 3 Xrotation Yrotation Zrotation
			JOINT RightLeg
			{
				OFFSET 0.018946 -31.938133 0.493100
				CHANNELS 3 Xrotation Yrotation Zrotation
				JOINT RightFoot
				{
					OFFSET -0.018946 -31.938126 -4.336299
					CHANNELS 3 Xrotation Yrotation Zrotation
					JOINT RightToeBase
					{
						OFFSET -0.943001 -26.722004 15.023500
						CHANNELS 3 Xrotation Yrotation Zrotation
						End Site
						{
							OFFSET 0 0 0
						}
					}
				}
			}
		}
	}
	JOINT Hips_virtual
	{
		OFFSET 0.000000 0.000000 0.000000
		CHANNELS 3 Xrotation Yrotation Zrotation
		JOINT Hips
		{
			OFFSET -0.000000 -0.000000 -0.000000
			CHANNELS 3 Xrotation Yrotation Zrotation
			JOINT Spine
			{
				OFFSET 0.000000 10.199997 -0.299500
				CHANNELS 3 Xrotation Yrotation Zrotation
				JOINT Spine1
				{
					OFFSET 0.000000 11.900002 -1.516600
					CHANNELS 3 Xrotation Yrotation Zrotation
					JOINT Spine2
					{
						OFFSET 0.000000 13.600006 -2.842500
						CHANNELS 3 Xrotation Yrotation Zrotation
						JOINT Neck_virtual
						{
							OFFSET 0.000000 0.000000 0.000000
							CHANNELS 3 Xrotation Yrotation Zrotation
							JOINT Neck
							{
								OFFSET 0.000000 9.624100 -2.890100
								CHANNELS 3 Xrotation Yrotation Zrotation
								JOINT Head
								{
									OFFSET 0.000000 14.068802 -1.351900
									CHANNELS 3 Xrotation Yrotation Zrotation
									End Site
									{
										OFFSET 0 0 0
									}
								}
							}
						}
						JOINT LeftShoulder_virtual
						{
							OFFSET 0.000000 0.000000 0.000000
							CHANNELS 3 Xrotation Yrotation Zrotation
							JOINT LeftShoulder
							{
								OFFSET 15.263000 10.923401 -0.547700
								CHANNELS 3 Xrotation Yrotation Zrotation
								JOINT LeftArm
								{
									OFFSET 25.438599 -2.830597 -13.032500
									CHANNELS 3 Xrotation Yrotation Zrotation
									JOINT LeftForeArm
									{
										OFFSET 29.960503 0.000000 0.000000
										CHANNELS 3 Xrotation Yrotation Zrotation
										JOINT LeftHand
										{
											OFFSET 27.849251 0.000000 0.000000
											CHANNELS 3 Xrotation Yrotation Zrotation
											End Site
											{
												OFFSET 0 0 0
											}
										}
									}
								}
							}
						}
						JOINT RightShoulder_virtual
						{
							OFFSET 0.000000 0.000000 0.000000
							CHANNELS 3 Xrotation Yrotation Zrotation
							JOINT RightShoulder
							{
								OFFSET -15.263000 10.923401 -0.547700
								CHANNELS 3 Xrotation Yrotation Zrotation
								JOINT RightArm
								{
									OFFSET -25.438599 -2.830597 -13.032500
									CHANNELS 3 Xrotation Yrotation Zrotation
									JOINT RightForeArm
									{
										OFFSET -29.960503 0.000000 0.000000
										CHANNELS 3 Xrotation Yrotation Zrotation
										JOINT RightHand
										{
											OFFSET -27.849251 0.000000 0.000000
											CHANNELS 3 Xrotation Yrotation Zrotation
											End Site
											{
												OFFSET 0 0 0
											}
										}
									}
								}
							}
						}
					}
				}
			}
		}
	}
}
MOTION
Frames: 10
Frame Time: 0.03333333
-6.903880 90.674332 13.277527 0.000000 0.000000 0.000000 -5.570438 -9.835838 -2.163105 -16.180817 -3.323046 13.602592 30.747527 1.141524 -6.285244 -2.822726 -2.113358 9.948428 0.000000 0.000000 0.000000 -6.896194 -8.908950 -2.065787 -27.383693 1.740641 6.636079 26.169405 -2.760998 8.266989 24.179421 -3.992707 3.290140 0.000000 0.000000 0.000000 -6.020130 -8.744341 -1.914927 -0.802269 -0.115766 -0.148816 8.407323 -5.073997 -0.203778 5.281130 4.619017 -0.250273 0.000000 0.000000 0.000000 2.108440 5.194363 -0.319452 1.417228 -6.946862 -1.795762 0.000000 0.000000 0.000000 -0.233126 3.616884 0.025655 1.686325 8.362607 -16.012931 -26.691807 -37.107141 -65.661293 -7.195101 -2.681686 -4.975709 0.000000 0.000000 0.000000 3.127469 7.882706 0.042127 -13.529627 13.181622 14.041932 -2.743582 15.914471 62.636236 12.600126 28.850538 -1.895473 0.000000 0.000000 0.000000 
-6.710402 90.701828 13.610222 0.000000 0.000000 0.000000 -5.550964 -9.926967 -2.153287 -16.330272 -2.810179 13.740362 30.915670 1.086055 -6.495673 -2.817328 -2.183232 9.860921 0.000000 0.000000 0.000000 -6.882111 -8.961218 -2.153262 -27.404438 1.635345 6.674024 26.570507 -2.693885 8.143189 24.171884 -3.810588 3.240882 0.000000 0.000000 0.000000 -6.025407 -8.923552 -1.922161 -0.813930 -0.107926 -0.168468 8.465847 -5.135570 -0.111137 5.185918 4.586490 -0.258144 0.000000 0.000000 0.000000 2.069571 5.199259 -0.311478 1.425900 -6.932373 -1.814522 0.000000 0.000000 0.000000 -0.213736 3.611242 0.051458 1.682203 8.474894 -16.076986 -26.861198 -37.101198 -65.647318 -7.133372 -2.709664 -5.056988 0.000000 0.000000 0.000000 3.173176 7.878547 -0.013186 -13.531510 13.083701 14.077923 -2.386930 15.951055 62.681254 12.592974 29.398797 -2.147189 0.000000 0.000000 0.000000 
-6.334504 90.659988 14.148216 0.000000 0.000000 0.000000 -5.409275 -10.165302 -2.090416 -16.502509 -2.088992 13.665764 31.177307 1.228170 -6.766537 -3.097651 -1.811932 10.089604 0.000000 0.000000 0.000000 -6.774078 -9.114758 -2.197703 -26.924749 1.415226 6.382946 26.404282 -2.537763 7.838989 23.508562 -3.430764 3.383737 0.000000 0.000000 0.000000 -6.006872 -9.179149 -1.864423 -0.826468 -0.100696 -0.178065 8.466895 -5.175416 0.034790 5.122958 4.557329 -0.217393 0.000000 0.000000 0.000000 2.030772 5.220762 -0.282006 1.450314 -6.928697 -1.866065 0.000000 0.000000 0.000000 -0.144281 3.633332 0.110050 1.704162 8.571037 -16.188098 -26.893457 -37.071405 -65.676859 -6.999155 -2.727170 -5.244660 0.000000 0.000000 0.000000 3.276833 7.886376 -0.035882 -13.358129 12.961565 13.979229 -1.923202 16.070867 62.559021 12.563211 30.175106 -2.626171 0.000000 0.000000 0.000000 
-5.864353 90.508331 14.852852 0.000000 0.000000 0.000000 -5.197991 -10.470484 -1.967064 -16.656352 -1.286233 13.367974 31.599938 1.501981 -7.027329 -3.869032 -1.070505 10.608215 0.000000 0.000000 0.000000 -6.554613 -9.279118 -2.151351 -26.167368 1.113615 5.844913 25.737500 -2.310322 7.447963 22.294566 -2.904564 3.780605 0.000000 0.000000 0.000000 -5.946181 -9.365547 -1.741934 -0.833863 -0.095611 -0.173634 8.382310 -5.186473 0.159069 5.081848 4.523723 -0.130661 0.000000 0.000000 0.000000 1.995817 5.248982 -0.228595 1.494074 -6.934227 -1.933006 0.000000 0.000000 0.000000 -0.013071 3.670098 0.195809 1.749467 8.650275 -16.331769 -26.716162 -37.048418 -65.691503 -6.806973 -2.695223 -5.530227 0.000000 0.000000 0.000000 3.408309 7.898493 -0.015339 -13.006387 12.884122 13.719341 -1.502764 16.321792 62.340769 12.510813 30.837471 -3.270069 0.000000 0.000000 0.000000 
-5.355114 90.247795 15.607140 0.000000 0.000000 0.000000 -4.928805 -10.747999 -1.800673 -16.783221 -0.569717 12.842017 32.173135 1.779009 -7.245985 -5.074857 -0.128650 11.226181 0.000000 0.000000 0.000000 -6.239741 -9.368961 -2.006831 -25.363322 0.782228 5.136825 24.884674 -2.071178 7.030026 21.066824 -2.331245 4.264868 0.000000 0.000000 0.000000 -5.825872 -9.452537 -1.588675 -0.836200 -0.083761 -0.160475 8.173180 -5.157335 0.211966 5.044872 4.489833 -0.022800 0.000000 0.000000 0.000000 1.968596 5.270204 -0.153163 1.553718 -6.943692 -1.998063 0.000000 0.000000 0.000000 0.142384 3.704166 0.288059 1.807865 8.711253 -16.464847 -26.321176 -37.027832 -65.654394 -6.580734 -2.617811 -5.892379 0.000000 0.000000 0.000000 3.499297 7.897801 0.051887 -12.475268 12.896178 13.286327 -1.322914 16.762099 62.141150 12.420743 31.000736 -3.999921 0.000000 0.000000 0.000000 
-4.865304 89.975723 16.265339 0.000000 0.000000 0.000000 -4.627191 -10.910151 -1.639403 -16.831318 -0.055034 12.179901 32.806666 1.980985 -7.426494 -6.517853 0.885322 11.774093 0.000000 0.000000 0.000000 -5.869357 -9.381214 -1.806652 -24.619757 0.410693 4.457428 24.198797 -1.931116 6.611364 20.200257 -1.859685 4.546382 0.000000 0.000000 0.000000 -5.620082 -9.388010 -1.454844 -0.836525 -0.065864 -0.150066 7.840874 -5.127212 0.194429 4.990938 4.432722 0.088981 0.000000 0.000000 0.000000 1.934256 5.268661 -0.056273 1.625527 -6.953421 -2.038500 0.000000 0.000000 0.000000 0.270204 3.705724 0.357185 1.857788 8.711397 -16.557352 -25.755781 -37.001867 -65.527469 -6.352852 -2.550134 -6.315128 0.000000 0.000000 0.000000 3.487048 7.864865 0.168138 -11.782077 13.000774 12.708445 -1.567722 17.396622 62.166258 12.278996 30.384527 -4.731613 0.000000 0.000000 0.000000 
-4.394241 89.760559 16.845325 0.000000 0.000000 0.000000 -4.265123 -10.919278 -1.509898 -16.712776 0.176176 11.473987 33.345970 2.080506 -7.566277 -8.051722 1.889577 12.199219 0.000000 0.000000 0.000000 -5.446167 -9.338822 -1.598451 -23.962131 0.288145 4.055669 23.701381 -1.956172 6.165210 19.413001 -1.675365 4.411413 0.000000 0.000000 0.000000 -5.333430 -9.210747 -1.367947 -0.836500 -0.051898 -0.150204 7.498777 -5.145447 0.143788 4.902404 4.325669 0.214196 0.000000 0.000000 0.000000 1.910887 5.221489 0.059959 1.701616 -6.950477 -2.036210 0.000000 0.000000 0.000000 0.319317 3.657573 0.393010 1.895092 8.621811 -16.569090 -25.091574 -36.940344 -65.310146 -6.128564 -2.507839 -6.787442 0.000000 0.000000 0.000000 3.299896 7.773069 0.325782 -10.981354 13.131307 12.052531 -2.276056 18.205413 62.444444 12.092461 29.011379 -5.402574 0.000000 0.000000 0.000000 
-3.957057 89.660583 17.306789 0.000000 0.000000 0.000000 -3.872829 -10.768123 -1.428068 -16.364368 0.190836 10.789763 33.550275 2.120418 -7.702304 -9.491163 2.882653 12.552458 0.000000 0.000000 0.000000 -5.003593 -9.235804 -1.430863 -23.427965 0.760785 4.022215 23.315640 -2.180122 5.718293 18.339758 -1.723582 3.925202 0.000000 0.000000 0.000000 -4.935569 -9.012494 -1.320199 -0.835532 -0.053399 -0.157858 7.247023 -5.237061 0.097774 4.752102 4.180332 0.354107 0.000000 0.000000 0.000000 1.904435 5.124306 0.194577 1.774427 -6.918685 -1.983227 0.000000 0.000000 0.000000 0.247939 3.567302 0.403259 1.927714 8.473671 -16.466766 -24.442739 -36.777837 -65.009638 -5.901743 -2.394219 -7.272160 0.000000 0.000000 0.000000 2.894448 7.624827 0.519699 -10.135464 13.210324 11.363370 -3.375146 19.109706 62.909628 11.875561 27.150173 -5.947806 0.000000 0.000000 0.000000 
-3.587381 89.688477 17.626101 0.000000 0.000000 0.000000 -3.540986 -10.487749 -1.397142 -15.756287 0.244383 10.180709 33.177063 2.206383 -7.867838 -10.699405 3.897887 12.919749 0.000000 0.000000 0.000000 -4.581486 -9.111781 -1.307978 -23.414747 1.700246 4.232702 23.532843 -2.525185 5.329740 17.198230 -1.798753 3.644721 0.000000 0.000000 0.000000 -4.488844 -8.882441 -1.283901 -0.825229 -0.064545 -0.160811 7.193526 -5.384765 -0.003268 4.511757 3.998529 0.512848 0.000000 0.000000 0.000000 1.874409 4.988223 0.353593 1.844959 -6.856795 -1.883452 0.000000 0.000000 0.000000 0.060793 3.450491 0.405677 1.950196 8.300534 -16.256851 -23.877860 -36.484459 -64.665813 -5.659240 -2.059742 -7.743962 0.000000 0.000000 0.000000 2.335318 7.423866 0.732667 -9.307558 13.184053 10.682342 -4.612738 20.003254 63.386874 11.687803 25.179542 -6.298254 0.000000 0.000000 0.000000 
-3.274864 89.865402 17.812489 0.000000 0.000000 0.000000 -3.293305 -10.198248 -1.388690 -14.921771 0.451831 9.596045 32.210824 2.376939 -8.044517 -11.445954 4.990790 13.319478 0.000000 0.000000 0.000000 -4.192208 -8.990714 -1.227035 -24.493801 2.659137 4.329033 25.062455 -2.906634 5.130378 16.332364 -1.713235 3.955901 0.000000 0.000000 0.000000 -4.056616 -8.881970 -1.235792 -0.808634 -0.081324 -0.153768 7.407126 -5.542996 -0.232114 4.198676 3.769889 0.679695 0.000000 0.000000 0.000000 1.781427 4.822417 0.547111 1.910936 -6.773090 -1.760921 0.000000 0.000000 0.000000 -0.195410 3.314051 0.420827 1.953143 8.071038 -15.972544 -23.412633 -36.097625 -64.343333 -5.379909 -1.408722 -8.194517 0.000000 0.000000 0.000000 1.757988 7.173730 0.932244 -8.532343 12.933368 10.040194 -5.720674 20.831515 63.694185 11.575646 23.493148 -6.412097 0.000000 0.000000 0.000000 
